<?xml version="1.0" standalone="no"?>
<!DOCTYPE svg PUBLIC "-//W3C//DTD SVG 20010904//EN"
 "http://www.w3.org/TR/2001/REC-SVG-20010904/DTD/svg10.dtd">
<svg version="1.0" xmlns="http://www.w3.org/2000/svg"
 width="531.000000pt" height="446.000000pt" viewBox="0 0 531.000000 446.000000"
 preserveAspectRatio="xMidYMid meet">

<g transform="translate(0.000000,446.000000) scale(0.100000,-0.100000)"
fill="#000000" stroke="none">
<path d="M1371 4296 c-44 -23 -70 -56 -71 -89 0 -16 -7 -18 -67 -12 -99 9
-323 -26 -371 -57 -21 -14 -58 -34 -83 -47 -49 -23 -68 -40 -166 -153 -39 -45
-70 -95 -96 -155 -21 -48 -48 -101 -60 -118 -20 -28 -21 -41 -18 -170 1 -78 9
-171 18 -210 30 -135 33 -172 34 -384 0 -118 5 -223 10 -233 14 -25 56 -23 70
4 l12 22 9 -23 c4 -13 9 -83 9 -156 2 -212 -31 -332 -133 -490 -24 -39 -53
-88 -63 -110 -10 -22 -31 -59 -47 -82 -16 -24 -43 -69 -61 -101 -18 -32 -45
-76 -60 -99 -15 -22 -44 -85 -65 -139 -36 -98 -36 -101 -37 -249 0 -130 3
-160 23 -221 13 -39 39 -93 58 -120 19 -27 51 -74 71 -104 52 -79 140 -178
183 -205 19 -12 61 -47 91 -77 41 -39 87 -69 174 -112 66 -32 132 -62 148 -67
16 -4 83 -9 150 -10 67 -1 190 -10 272 -21 122 -16 160 -18 205 -9 30 6 61 12
69 14 8 1 21 -18 32 -53 23 -65 32 -75 67 -75 15 -1 48 -9 75 -19 l47 -19 68
34 c57 29 67 38 70 63 2 18 21 50 46 77 41 46 86 140 86 180 0 27 25 34 61 16
37 -17 60 -13 94 19 14 13 29 24 34 24 4 0 20 -14 37 -31 38 -40 138 -98 244
-142 145 -60 226 -69 656 -74 451 -6 495 -1 724 83 80 30 163 57 185 60 44 7
91 29 157 72 24 16 59 35 78 42 19 7 56 28 82 47 25 18 93 51 150 72 56 21
144 57 194 80 51 23 107 41 126 41 21 0 44 8 58 20 18 15 37 20 84 20 90 0
126 34 96 89 -10 19 -141 111 -245 173 -39 23 -109 49 -200 74 l-140 39 -200
-1 c-199 -1 -332 -11 -455 -34 -123 -23 -261 -60 -300 -80 -59 -30 -179 -28
-234 4 -23 12 -75 36 -116 52 l-75 29 45 7 c25 3 64 7 88 7 58 1 85 18 166
100 38 39 72 71 77 71 4 0 37 44 74 99 36 54 92 126 124 160 56 59 59 64 54
104 -3 28 -13 50 -31 66 -15 14 -26 29 -24 34 2 6 -2 22 -8 37 -12 30 -47 50
-85 50 -16 0 -28 9 -37 27 -16 34 -53 48 -102 39 -28 -5 -58 -27 -119 -84 -45
-43 -111 -102 -147 -132 -35 -30 -76 -68 -90 -83 l-25 -29 -45 18 c-25 10 -72
38 -105 62 -99 73 -117 80 -306 117 -75 15 -155 52 -187 87 -53 57 -120 161
-131 203 -6 25 -20 54 -31 65 -11 11 -20 28 -20 39 0 10 -9 46 -20 80 -10 33
-20 80 -21 104 -1 23 -10 61 -21 84 -10 23 -18 48 -18 55 0 7 -11 37 -25 65
-18 40 -35 60 -73 83 -27 16 -77 62 -112 100 -34 39 -99 108 -144 153 -44 46
-90 102 -101 126 -19 44 -19 44 0 57 77 53 217 144 251 163 49 27 103 111 111
170 l6 41 49 0 c51 0 103 -19 147 -52 27 -20 48 -11 38 17 -11 28 -126 75
-184 75 -44 0 -53 3 -53 18 0 10 -9 35 -20 57 -11 21 -18 40 -16 42 10 11 129
24 174 20 47 -5 52 -4 52 15 0 19 -4 20 -112 15 -62 -3 -120 -7 -129 -9 -8 -1
-35 14 -58 35 l-42 38 43 39 c30 28 66 47 118 64 76 24 177 41 218 37 27 -3
30 24 5 37 -21 11 -127 -6 -230 -37 -50 -15 -87 -35 -127 -67 l-56 -46 -26 31
c-15 18 -45 41 -67 53 -22 11 -70 43 -106 71 -36 27 -91 61 -121 75 -30 14
-72 38 -92 54 -37 29 -38 32 -38 91 0 68 -4 78 -37 96 -30 15 -41 14 -92 -13z
m49 -84 c0 -12 -28 -48 -33 -42 -8 8 11 50 23 50 5 0 10 -4 10 -8z m-43 -136
c30 -15 67 -26 82 -26 15 0 31 -4 36 -9 6 -6 43 -26 84 -46 40 -20 101 -58
135 -84 33 -27 75 -55 91 -64 17 -8 43 -29 59 -46 28 -29 29 -33 17 -66 -18
-49 -4 -66 25 -29 l24 29 26 -26 26 -26 -36 -28 c-39 -30 -44 -42 -20 -52 9
-3 27 6 45 23 l31 29 20 -25 19 -24 -22 -9 c-45 -16 -47 -54 -3 -43 21 6 24 3
24 -25 0 -35 -24 -92 -47 -111 -14 -11 -15 -9 -9 19 6 25 3 34 -14 46 -28 20
-53 12 -74 -24 -13 -22 -24 -29 -48 -29 -66 0 -88 58 -43 112 31 37 34 104 7
138 -38 47 -163 34 -192 -19 -22 -41 -12 -76 28 -102 48 -31 52 -63 16 -129
-28 -52 -46 -60 -86 -39 -30 16 -68 -3 -68 -35 0 -39 43 -66 107 -66 55 0 80
15 109 66 9 16 14 17 27 6 9 -8 37 -17 64 -20 l48 -7 -75 -45 c-137 -83 -218
-185 -228 -290 -3 -35 0 -51 13 -63 35 -35 75 -11 75 46 0 29 19 87 28 87 4
-1 23 -26 42 -57 19 -30 49 -65 66 -77 18 -12 50 -45 73 -74 23 -28 45 -52 49
-52 4 0 27 -25 52 -56 24 -31 63 -67 86 -80 70 -41 68 -37 140 -314 24 -92 29
-236 11 -339 -9 -47 -21 -123 -28 -169 -8 -59 -15 -80 -22 -73 -19 19 -42 12
-90 -25 -44 -34 -46 -35 -75 -20 -20 10 -31 25 -36 47 -3 17 -6 145 -6 283 0
266 -2 276 -47 276 -42 0 -45 -25 -41 -319 5 -328 4 -324 104 -374 45 -22 69
-29 78 -22 69 51 65 50 90 26 12 -11 34 -21 49 -21 46 0 64 46 87 225 7 50 16
114 22 144 l10 54 24 -29 c14 -16 40 -52 59 -81 62 -93 130 -131 306 -169 127
-27 204 -60 265 -114 17 -15 51 -35 76 -45 25 -11 49 -28 54 -39 18 -42 48
-31 125 47 41 40 92 88 114 106 22 19 69 62 105 96 81 78 108 93 117 68 11
-33 36 -53 63 -53 23 0 27 -3 23 -24 -6 -28 27 -66 56 -66 21 0 37 -16 22 -22
-12 -5 -181 -218 -181 -229 0 -15 -182 -189 -208 -200 -40 -16 -168 -11 -183
7 -16 20 -98 11 -116 -13 -15 -19 -8 -36 39 -100 45 -62 62 -74 148 -107 36
-13 92 -39 125 -56 58 -31 63 -32 160 -28 78 3 109 9 141 26 65 33 328 92 417
92 29 0 72 5 97 11 25 6 117 11 205 11 154 1 166 -1 300 -37 112 -29 156 -46
221 -86 45 -27 92 -58 105 -69 l24 -19 -33 -1 c-17 0 -49 -9 -69 -20 -21 -11
-46 -20 -56 -20 -10 0 -71 -24 -137 -54 -66 -30 -143 -62 -172 -70 -29 -9 -75
-29 -103 -45 -27 -17 -79 -45 -115 -64 -36 -19 -91 -51 -123 -70 -31 -19 -74
-38 -94 -42 -20 -3 -102 -31 -183 -61 -81 -29 -182 -61 -226 -70 -172 -34
-779 -27 -972 12 -147 29 -298 108 -401 208 -51 48 -61 64 -61 92 0 28 -4 35
-27 40 -14 4 -33 2 -42 -3 -20 -12 -26 -75 -11 -104 15 -28 0 -39 -56 -39
l-41 0 -11 51 c-7 28 -24 81 -39 117 -14 37 -28 89 -30 116 -2 40 -8 54 -35
78 -54 48 -88 47 -143 -8 -14 -14 -21 -15 -36 -6 -33 21 -67 13 -109 -25 -31
-27 -44 -33 -52 -25 -7 7 -29 12 -51 12 -29 0 -46 -7 -68 -29 -27 -27 -29 -35
-29 -103 0 -103 38 -270 80 -347 9 -18 7 -25 -17 -46 -32 -28 -83 -32 -174
-15 -30 6 -142 14 -249 19 l-195 8 -120 58 c-88 43 -136 74 -180 115 -33 31
-76 66 -96 78 -39 23 -91 82 -160 180 -121 173 -139 225 -139 401 0 98 3 119
33 204 18 52 50 121 71 153 63 98 114 185 152 259 20 39 50 89 66 113 72 104
119 225 137 352 7 47 19 97 27 112 18 34 18 105 -1 158 -9 27 -15 80 -15 144
0 57 -9 149 -20 211 -11 61 -27 160 -36 220 -8 61 -22 141 -30 178 -19 91 -18
97 10 97 37 0 91 42 94 73 5 42 -33 55 -86 28 -58 -30 -101 -5 -81 47 6 17 16
22 43 22 48 0 81 29 72 63 -5 23 -12 27 -41 27 l-34 0 25 55 c31 71 164 229
207 245 18 7 53 26 78 41 98 62 374 75 486 25z m543 -3256 c77 -217 83 -263
50 -352 -14 -39 -39 -72 -89 -122 -78 -77 -102 -84 -150 -43 -17 14 -34 27
-39 29 -8 3 -31 79 -83 268 -10 36 -18 91 -18 122 -1 47 -5 59 -21 68 -22 12
-24 18 -11 39 7 11 13 9 30 -8 34 -34 71 -28 112 20 31 37 38 40 57 30 35 -19
67 -13 97 19 17 17 31 27 33 23 1 -4 16 -46 32 -93z"/>
<path d="M1489 3961 c-26 -27 -30 -37 -25 -64 7 -36 30 -57 61 -57 30 0 51 19
64 59 9 28 8 39 -4 58 -9 12 -19 23 -24 23 -5 0 -16 3 -25 6 -10 4 -27 -6 -47
-25z"/>
<path d="M873 3710 c-28 -11 -43 -40 -43 -83 0 -43 26 -67 73 -67 48 0 76 37
58 76 -6 14 -11 34 -11 45 0 12 -10 23 -26 29 -14 6 -26 10 -27 9 -1 0 -12 -4
-24 -9z"/>
<path d="M1265 3608 c-52 -28 -145 -141 -145 -175 0 -7 9 -13 20 -13 11 0 20
6 20 14 0 23 89 123 122 137 24 10 39 10 72 0 63 -18 71 -18 71 3 0 35 -114
60 -160 34z"/>
<path d="M1366 3509 c-81 -43 -116 -117 -116 -246 0 -58 3 -73 15 -73 8 0 15
3 16 8 0 4 2 34 3 67 6 126 35 180 114 215 26 12 42 25 40 32 -7 20 -30 19
-72 -3z"/>
<path d="M1462 3451 c-23 -14 -41 -93 -53 -228 -13 -144 -9 -193 16 -193 12 0
15 18 15 93 0 109 23 260 45 293 8 13 15 25 15 28 0 8 -27 14 -38 7z"/>
<path d="M902 2438 c-6 -6 -12 -18 -12 -26 0 -30 67 -129 135 -202 39 -41 87
-97 105 -123 36 -50 136 -140 187 -168 31 -17 75 -108 86 -175 4 -29 3 -31
-26 -31 -21 0 -37 -8 -52 -27 -13 -16 -25 -24 -29 -18 -11 18 -46 20 -66 4
-12 -10 -24 -36 -28 -62 l-7 -44 -21 29 c-11 17 -44 82 -74 145 -30 63 -71
140 -92 170 -20 30 -58 85 -83 123 -66 97 -108 118 -134 70 -8 -15 0 -33 37
-89 26 -39 62 -88 80 -110 18 -21 68 -111 111 -199 89 -181 117 -215 184 -222
38 -5 47 -2 61 18 9 13 16 31 16 41 0 14 6 16 29 12 35 -7 69 10 81 41 6 17
14 22 29 18 13 -3 29 4 47 22 25 25 26 31 21 98 -3 49 -15 97 -37 150 -31 73
-37 80 -99 121 -67 44 -151 121 -151 139 0 5 -36 46 -79 91 -44 44 -97 110
-119 146 -40 67 -72 86 -100 58z"/>
<path d="M2615 1274 c-70 -25 -123 -56 -177 -102 -29 -25 -74 -60 -99 -79 -59
-42 -96 -96 -105 -152 -6 -38 -5 -43 11 -40 10 3 23 23 33 54 14 41 31 61 102
122 106 92 159 127 230 154 48 18 72 21 190 17 138 -3 171 6 107 29 -46 17
-243 15 -292 -3z"/>
</g>
</svg>
